<svg data-v-fde0c5aa="" xmlns="http://www.w3.org/2000/svg" viewBox="0 0 300 300" class="iconLeft"><!----><defs data-v-fde0c5aa=""><!----></defs><rect data-v-fde0c5aa="" fill="transparent" x="0" y="0" width="300px" height="300px" class="logo-background-square"></rect><defs data-v-fde0c5aa=""><!----></defs><g data-v-fde0c5aa="" id="9b388ef4-617f-411f-bc6d-3f8ca4ead790" fill="#000000" transform="matrix(2.510915129313639,0,0,2.510915129313639,94.93244925268087,124.20034620819402)"><path d="M1.08 13.51L1.08 3.71L4.66 3.71Q6.23 3.71 7.13 4.46Q8.04 5.21 8.04 6.68L8.04 6.68Q8.04 7.70 7.60 8.35Q7.17 9.00 6.37 9.39L6.37 9.39L8.58 13.51L6.58 13.51L4.69 9.87L4.62 9.87L2.87 9.87L2.87 13.51L1.08 13.51ZM2.87 8.37L4.19 8.37Q6.16 8.37 6.16 6.78L6.16 6.78Q6.16 6.01 5.71 5.61Q5.26 5.21 4.26 5.21L4.26 5.21L2.87 5.21L2.87 8.37ZM12.49 13.65Q11.38 13.65 10.57 13.16Q9.76 12.67 9.32 11.84Q8.89 11.02 8.89 10.02L8.89 10.02Q8.89 9.03 9.32 8.19Q9.76 7.35 10.57 6.86Q11.38 6.37 12.49 6.37L12.49 6.37Q13.59 6.37 14.41 6.86Q15.22 7.35 15.65 8.19Q16.09 9.03 16.09 10.02L16.09 10.02Q16.09 11.02 15.65 11.84Q15.22 12.67 14.41 13.16Q13.59 13.65 12.49 13.65L12.49 13.65ZM12.49 12.22Q13.34 12.22 13.82 11.62Q14.31 11.02 14.31 10.02L14.31 10.02Q14.31 9.02 13.82 8.41Q13.34 7.80 12.49 7.80L12.49 7.80Q11.63 7.80 11.15 8.41Q10.67 9.02 10.67 10.02L10.67 10.02Q10.67 11.02 11.15 11.62Q11.63 12.22 12.49 12.22L12.49 12.22ZM19.35 12.04L22.78 12.04L22.78 13.51L16.63 13.51L20.03 7.98L16.95 7.98L16.95 6.51L22.75 6.51L19.35 12.04ZM26.50 17.04Q25.02 17.04 24.14 16.50Q23.25 15.96 23.25 15.04L23.25 15.04Q23.25 14.03 24.39 13.38L24.39 13.38Q23.77 13.01 23.77 12.39L23.77 12.39Q23.77 12.07 23.96 11.82Q24.15 11.56 24.47 11.41L24.47 11.41Q23.94 11.03 23.67 10.44Q23.39 9.86 23.39 9.16L23.39 9.16Q23.39 8.39 23.73 7.75Q24.07 7.11 24.71 6.74Q25.35 6.37 26.24 6.37L26.24 6.37Q27.16 6.37 27.83 6.82L27.83 6.82Q28.07 6.69 28.47 6.60Q28.87 6.51 29.33 6.51L29.33 6.51L29.78 6.51L29.67 7.60L29.04 7.60Q28.80 7.60 28.64 7.62L28.64 7.62Q29.06 8.26 29.06 9.16L29.06 9.16Q29.06 9.93 28.74 10.56Q28.41 11.20 27.76 11.57Q27.12 11.94 26.24 11.94L26.24 11.94Q25.91 11.94 25.49 11.84L25.49 11.84Q25.34 11.91 25.34 12.07L25.34 12.07Q25.34 12.25 25.56 12.36Q25.77 12.46 26.29 12.53L26.29 12.53L27.50 12.68Q29.90 13.01 29.90 14.71L29.90 14.71Q29.90 15.78 29.00 16.41Q28.10 17.04 26.50 17.04L26.50 17.04ZM26.24 10.65Q26.84 10.65 27.17 10.25Q27.50 9.86 27.50 9.16L27.50 9.16Q27.50 8.46 27.17 8.06Q26.84 7.66 26.24 7.66L26.24 7.66Q25.62 7.66 25.29 8.06Q24.96 8.46 24.96 9.16L24.96 9.16Q24.96 9.86 25.29 10.25Q25.62 10.65 26.24 10.65L26.24 10.65ZM26.57 15.72Q28.36 15.72 28.36 14.84L28.36 14.84Q28.36 14.45 28.06 14.26Q27.75 14.07 27.03 13.96L27.03 13.96L25.49 13.73Q24.70 14.06 24.70 14.71L24.70 14.71Q24.70 15.22 25.19 15.47Q25.68 15.72 26.57 15.72L26.57 15.72ZM32.26 13.65Q31.39 13.65 30.81 13.08Q30.23 12.52 30.23 11.55L30.23 11.55Q30.23 10.64 30.88 10.09Q31.54 9.53 32.44 9.30Q33.33 9.07 34.16 9.04L34.16 9.04Q34.13 8.43 33.84 8.16Q33.56 7.90 32.90 7.90L32.90 7.90Q32.44 7.90 32.00 8.02Q31.56 8.15 30.98 8.43L30.98 8.43L30.83 7.01Q32.10 6.40 33.38 6.40L33.38 6.40Q34.61 6.40 35.26 7.07Q35.91 7.74 35.91 9.21L35.91 9.21L35.91 11.10Q35.91 11.63 35.96 11.87Q36.01 12.10 36.13 12.16Q36.25 12.22 36.53 12.22L36.53 12.22L36.75 12.22L36.60 13.65L35.97 13.65Q35.39 13.65 35 13.43Q34.61 13.22 34.40 12.84L34.40 12.84Q34.06 13.22 33.48 13.43Q32.90 13.65 32.26 13.65L32.26 13.65ZM32.98 12.32Q33.25 12.32 33.59 12.19Q33.92 12.05 34.17 11.82L34.17 11.82L34.17 10.22Q33.33 10.26 32.69 10.58Q32.05 10.91 32.05 11.48L32.05 11.48Q32.05 11.91 32.27 12.12Q32.49 12.32 32.98 12.32L32.98 12.32ZM37.72 13.51L37.72 6.51L39.34 6.51L39.38 7.25Q39.69 6.90 40.17 6.64Q40.66 6.37 41.19 6.37L41.19 6.37Q41.36 6.37 41.50 6.40L41.50 6.40L41.37 8.11Q41.10 8.04 40.77 8.04L40.77 8.04Q40.33 8.04 39.97 8.24Q39.61 8.44 39.45 8.74L39.45 8.74L39.45 13.51L37.72 13.51ZM46.23 8.33Q47.04 8.60 47.51 9.21Q47.98 9.83 47.98 10.72L47.98 10.72Q47.98 12.14 47.03 12.92Q46.09 13.71 44.49 13.71L44.49 13.71Q43.68 13.71 42.96 13.52Q42.24 13.34 41.73 13.08L41.73 13.08L42.17 11.56Q43.37 12.17 44.49 12.17L44.49 12.17Q45.28 12.17 45.73 11.80Q46.19 11.44 46.19 10.72L46.19 10.72Q46.19 9.24 44.38 9.24L44.38 9.24L43.39 9.24L43.39 7.56L44.37 7.56Q45.12 7.56 45.52 7.22Q45.92 6.87 45.92 6.24L45.92 6.24Q45.92 5.70 45.55 5.38Q45.18 5.05 44.49 5.05L44.49 5.05Q43.93 5.05 43.41 5.22Q42.88 5.39 42.32 5.71L42.32 5.71L42.06 4.13Q43.23 3.51 44.67 3.51L44.67 3.51Q46.07 3.51 46.85 4.21Q47.63 4.90 47.63 6.02L47.63 6.02Q47.63 6.82 47.26 7.41Q46.90 8.01 46.23 8.33L46.23 8.33ZM53.21 7.62Q54.03 7.62 54.68 7.99Q55.34 8.37 55.71 9.04Q56.08 9.72 56.08 10.57L56.08 10.57Q56.08 11.49 55.69 12.21Q55.30 12.92 54.57 13.31Q53.84 13.71 52.86 13.71L52.86 13.71Q51.86 13.71 51.09 13.25Q50.32 12.80 49.90 11.97Q49.48 11.14 49.48 10.05L49.48 10.05Q49.48 8.57 50.15 7.27Q50.82 5.96 51.85 5.01Q52.88 4.06 53.96 3.51L53.96 3.51L55.20 4.49Q54.18 5.00 53.07 5.94Q51.97 6.89 51.45 8.09L51.45 8.09Q52.18 7.62 53.21 7.62L53.21 7.62ZM52.89 12.22Q53.56 12.22 54.01 11.77Q54.46 11.31 54.46 10.64L54.46 10.64Q54.46 9.98 54.01 9.54Q53.56 9.10 52.89 9.10L52.89 9.10Q52.21 9.10 51.77 9.54Q51.32 9.98 51.32 10.64L51.32 10.64Q51.32 11.31 51.77 11.77Q52.22 12.22 52.89 12.22L52.89 12.22ZM61.61 13.71Q60.38 13.71 59.45 13.06Q58.52 12.42 58.00 11.24Q57.48 10.07 57.48 8.53L57.48 8.53Q57.48 7.06 58.00 5.92Q58.52 4.77 59.46 4.14Q60.40 3.51 61.61 3.51L61.61 3.51Q62.85 3.51 63.78 4.15Q64.72 4.79 65.23 5.92Q65.74 7.06 65.74 8.53L65.74 8.53Q65.74 10.07 65.23 11.24Q64.72 12.42 63.78 13.06Q62.85 13.71 61.61 13.71L61.61 13.71ZM61.61 12.10Q62.68 12.10 63.32 11.21Q63.95 10.33 63.95 8.53L63.95 8.53Q63.95 6.85 63.31 5.97Q62.66 5.10 61.61 5.10L61.61 5.10Q60.56 5.10 59.92 5.97Q59.28 6.85 59.28 8.53L59.28 8.53Q59.28 10.32 59.91 11.21Q60.55 12.10 61.61 12.10L61.61 12.10Z"></path></g><defs data-v-fde0c5aa=""><linearGradient data-v-fde0c5aa="" gradientTransform="rotate(25)" id="ba7dcf04-9705-4d2b-b586-5dea8480d435" x1="0%" y1="0%" x2="100%" y2="0%"><stop data-v-fde0c5aa="" offset="0%" stop-color="#288B58" stop-opacity="1"></stop><stop data-v-fde0c5aa="" offset="100%" stop-color="#1522F1" stop-opacity="1"></stop></linearGradient></defs><g data-v-fde0c5aa="" id="30251342-5dd8-40ab-abb2-928d42a9f7bc" stroke="none" fill="url(#ba7dcf04-9705-4d2b-b586-5dea8480d435)" transform="matrix(0.5206889359233167,0,0,0.5206889359233167,36.271184269416636,123.95734338855732)"><path d="M18.17 5a12.12 12.12 0 013.12-2.19 11.37 11.37 0 017.44-1.49 11.64 11.64 0 018.42 17.3 8.52 8.52 0 01-4.27 3.73 6.28 6.28 0 01-4.88-.02c-.84-.42-1.24-1-.92-1.8.17-.39.58-.92.85-1a5.77 5.77 0 004-2.32 6.4 6.4 0 001.2-4.53 7.75 7.75 0 00-6.69-6.58 7 7 0 00-5 3 7.23 7.23 0 00-1.13 5.51 7.82 7.82 0 004.21 5.63 5.34 5.34 0 011.6 1.14 2.73 2.73 0 01.88 1.68 1.46 1.46 0 01-1 1.54 4 4 0 01-1.29.27 5.89 5.89 0 01-1.58-.19A11.43 11.43 0 0115 16.37 11.9 11.9 0 0118.17 5zM8.23 49l-.94-8.34-.11-1.07a12.2 12.2 0 010-1.35 10.08 10.08 0 01.43-2.62 10.29 10.29 0 012.7-4.47 10.05 10.05 0 015.4-2.76 12.59 12.59 0 012.82-.1l1.21.06h1.15a2.17 2.17 0 011.43.67l.13.15v.06l.17.24.35.49.68 1L25 33l1.29 1.93.62 1L27 36h-.06a.07.07 0 01.1 0 .07.07 0 010 .06.08.08 0 000 .07s.13-.12.18-.17l.86-.85 1.71-1.63 1.7-1.55.84-.74.42-.36.21-.18c.07-.06.16-.14.16-.11a1.34 1.34 0 00.2 0l.43.1.79.2a5.91 5.91 0 011.17.44c.57.31.66.66 0 1l-.23.11c.12.1.14.11 0 0a6.42 6.42 0 01-.69.25c-.08.12-.16.23-.25.33l-2.37 3.23-1.28 1.57-.64.79-.1.12-.17.18a4 4 0 01-1.25.88 3.79 3.79 0 01-2 .33h.45a3.94 3.94 0 01-3-1 4.08 4.08 0 01-.29-.29l-.17-.2-.13-.16-.26-.32-1-1.29-2.06-2.58-.8-1h-2.26a5.27 5.27 0 00-3.63 1.87 5.2 5.2 0 00-1.15 3.9l1.72 13 .42 3.26.21 1.63.09.66A3.72 3.72 0 0015 58a4.16 4.16 0 002.47 2.72h.11a2.87 2.87 0 011.79 2.31c1.11 9.16 2.08 18.29 2.77 27.38l.23 1.51.11.75.05.34a1 1 0 000 .16 1.2 1.2 0 00.74.79 1.17 1.17 0 00.27.06h6.89a1 1 0 00.23-.08 1 1 0 00.56-.74l.78-5.91q1.49-12.09 3.07-24.18l1.64-2h.14L37 61l.27-.13a5.74 5.74 0 00.52-.32 4.66 4.66 0 00.89-.82 4.55 4.55 0 001-2.2l1.11-7.43 1.17-7.49.3-1.87.15-.93c.05-.31.11-.65.11-.84a6.2 6.2 0 00-.34-2.77 9.08 9.08 0 00-3.36-4.24c-1.21-.92-2.26-1.38-2.45-2-.11-.35.1-.65.64-.88a4.85 4.85 0 012.5-.2 8.61 8.61 0 013.64 1.52 9.91 9.91 0 013.18 3.81 10.88 10.88 0 011 4.9v1.15l-.1.95L47 43l-.86 7.58-.93 7.65a9.93 9.93 0 01-4.75 7.25q-1.72 12.66-3.64 25.31L36.44 93l-.09.56a6.84 6.84 0 01-.21 1 6 6 0 01-4.47 4.16 5.52 5.52 0 01-1 .14H28.82l-5 .09h-.52c-.19 0-.39 0-.58-.07a6.29 6.29 0 01-1.13-.3 6 6 0 01-2-1.22 6.09 6.09 0 01-1.38-1.89 5.83 5.83 0 01-.39-1.11 9.32 9.32 0 01-.17-.94l-1.38-9.86Q15 74.38 13.89 65.22a9.81 9.81 0 01-2.89-2.7 9.66 9.66 0 01-1.3-2.58 10.59 10.59 0 01-.34-1.4l-.09-.67-.06-.52zm18.7-13s-.01.06 0 .06zm59.74-24.78c-.65-.84-1.37-1.62-2.08-2.4l-1.16-1.08a10.73 10.73 0 00-1.22-1 26.08 26.08 0 00-19-5.51 25.59 25.59 0 00-17.26 9.43c-.29.37-.59.73-.83 1.1s-.44.76-.63 1.12-.36.71-.51 1a7.55 7.55 0 00-.29 1c-.28 1.22-.14 2 .55 2.24 1.3.36 3.06-1.29 5.28-3.56A23.3 23.3 0 0164.7 6.73a22.6 22.6 0 016.76.58 24.68 24.68 0 016.31 2.62 21.91 21.91 0 018.8 10.39 27.94 27.94 0 01.64 3.05 26.51 26.51 0 01.21 3.08 22.3 22.3 0 01-.69 6 22.9 22.9 0 01-5.79 10.45 24.21 24.21 0 01-4.78 3.65 24.07 24.07 0 01-5.63 2.17 23.05 23.05 0 01-6 .46 21.35 21.35 0 01-5.85-1.35 4.41 4.41 0 00-2.4-.07c-1 .37-.44 1.31.79 2.39a17 17 0 008 3.46 20.84 20.84 0 009.9-.88 26 26 0 0010.51-6.6 26.93 26.93 0 006.38-10.84 26.54 26.54 0 00.5-12.7 25.81 25.81 0 00-5.69-11.37zM69 14.72c-.36 4.17.61 8.38-1.06 12.5 1.4 1.14 2.8 2.27 4.1 3.51a21.31 21.31 0 012.7 3.43c.46.67.19 1.72-.66 2.66a2 2 0 01-2.58.64 25.91 25.91 0 01-6.05-5.63c-.28-.34-.54-.69-.81-1q-.37-.28-.73-.58a2.22 2.22 0 01-.79-1.51v-.5c-.28-3.21.32-6.4.72-9.59a5.83 5.83 0 012.45-4.06 2.17 2.17 0 011.86-.41c.36.06.85.35.85.54zm2.89 50.69A9.27 9.27 0 0070.65 68a9.72 9.72 0 00-.37 2.79 8.44 8.44 0 00.54 2.85 8.07 8.07 0 001.56 2.48 9.93 9.93 0 002.12 1.68 15.84 15.84 0 004.5 1.7c.68.29 1.18.49 1.68.74a15.13 15.13 0 011.42.76 6.55 6.55 0 012 1.69 2.84 2.84 0 01.54 1.72 4.81 4.81 0 01-.11 1.07 4 4 0 01-.37.93 4.4 4.4 0 01-3.76 2.05 4.17 4.17 0 01-3.85-2c-.13-.21-.8-.33-1.21-.34-.8 0-1.28.62-1.26 1.59a5.69 5.69 0 002.6 4.45 7.18 7.18 0 001.51.79v.06c-1.75 1.16-.75 2.36-1.11 3.53a2.61 2.61 0 00.89.16 6.87 6.87 0 001.86-.12c1.58-.33 2.27-.73 2.45-1.13a5.61 5.61 0 00.79-2.25 9 9 0 007.2-8.84A8.23 8.23 0 0089 79.92a9.61 9.61 0 00-3.15-3 14.87 14.87 0 00-3.52-1.56c-.57-.17-1.21-.33-1.71-.44s-.88-.21-1.3-.33a12.34 12.34 0 01-2.27-.88 3.8 3.8 0 01-1.16-1.37 2.77 2.77 0 01-.25-1.14 3.88 3.88 0 01.2-1.37 3.69 3.69 0 011.63-2 6.07 6.07 0 013-.8 5.28 5.28 0 012.94.89 8.11 8.11 0 001.57.88 2.06 2.06 0 001.76 0 1.81 1.81 0 00.93-1.68 3.91 3.91 0 00-1.26-2.68A9.44 9.44 0 0083 62.21a2 2 0 00-.17-1c.06-.14.13-.28.17-.42a2.82 2.82 0 00-.3-2.63c-.18-.25-.88-.46-2.27-.44s-2.2.19-2.35.45a2.62 2.62 0 00-.52 1.38 11.23 11.23 0 00.54 2.14 9.37 9.37 0 00-4.1 1.69 9.54 9.54 0 00-2.08 2.03zm-22.74 0A9.27 9.27 0 0047.91 68a9.72 9.72 0 00-.37 2.79 8.44 8.44 0 00.54 2.85 8.07 8.07 0 001.56 2.48 9.93 9.93 0 002.12 1.67 15.84 15.84 0 004.5 1.7c.68.29 1.18.49 1.68.74a15.13 15.13 0 011.42.76 6.55 6.55 0 012 1.69 2.84 2.84 0 01.54 1.72 4.81 4.81 0 01-.11 1.07 4 4 0 01-.37.93 4.4 4.4 0 01-3.76 2.05 4.17 4.17 0 01-3.85-2c-.13-.21-.8-.33-1.21-.34-.8 0-1.28.62-1.26 1.59a5.69 5.69 0 002.6 4.45 7.18 7.18 0 001.51.79V93c-1.75 1.16-.75 2.36-1.11 3.53a2.61 2.61 0 00.89.16 6.87 6.87 0 001.86-.12c1.58-.33 2.27-.73 2.45-1.13a5.61 5.61 0 00.79-2.25 9 9 0 007.2-8.84 8.23 8.23 0 00-1.23-4.43 9.61 9.61 0 00-3.15-3 14.87 14.87 0 00-3.52-1.56c-.57-.17-1.21-.33-1.71-.44s-.88-.21-1.3-.33a12.34 12.34 0 01-2.27-.88 3.8 3.8 0 01-1.16-1.37 2.77 2.77 0 01-.25-1.14 3.88 3.88 0 01.2-1.37 3.69 3.69 0 011.63-2 6.07 6.07 0 013-.8 5.28 5.28 0 012.94.89 8.11 8.11 0 001.57.88 2.06 2.06 0 001.76 0 1.81 1.81 0 00.93-1.68 3.91 3.91 0 00-1.26-2.68 9.44 9.44 0 00-3.37-2.16 2 2 0 00-.17-1c.06-.14.13-.28.17-.42A2.82 2.82 0 0060 58.2c-.18-.25-.88-.46-2.27-.44s-2.2.19-2.35.45a2.62 2.62 0 00-.52 1.38 11.23 11.23 0 00.54 2.14 9.37 9.37 0 00-4.19 1.65 9.54 9.54 0 00-2.03 2.03z"></path></g><!----></svg>